<svg width="139" height="147" viewBox="0 0 139 147" fill="none" xmlns="http://www.w3.org/2000/svg">
<path d="M139 146.773H0V52L41.4141 93.6816L69.3115 65.7852L97.3994 93.873L139 52V146.773Z" fill="#E5E5E5"/>
<path d="M70 23.9131C70.7378 29.0469 71.9075 32.9012 73.9766 35.7461C76.3225 38.9715 79.6667 40.6981 84.1885 41.7246C84.6219 41.823 85.0683 41.9131 85.5273 42C85.0683 42.0869 84.6219 42.177 84.1885 42.2754C79.6667 43.3019 76.3225 45.0285 73.9766 48.2539C71.9076 51.0986 70.7378 54.9526 70 60.0859C69.2622 54.9526 68.0924 51.0986 66.0234 48.2539C63.6775 45.0285 60.3333 43.3019 55.8115 42.2754C55.3778 42.1769 54.931 42.087 54.4717 42C54.931 41.913 55.3778 41.8231 55.8115 41.7246C60.3333 40.6981 63.6775 38.9715 66.0234 35.7461C68.0925 32.9012 69.2622 29.0469 70 23.9131Z" stroke="#E5E5E5" stroke-width="3"/>
</svg>
